<svg xmlns="http://www.w3.org/2000/svg" width="31" height="31" viewBox="0 0 31 31">
  <g id="_x32_7-Setting" transform="translate(-8.5 39.5) rotate(-90)">
    <g id="Сгруппировать_9" data-name="Сгруппировать 9">
      <path id="Контур_56" data-name="Контур 56" d="M14.3,17.185V10a1.5,1.5,0,1,0-3,0v7.185a4.279,4.279,0,0,0,0,8.03V38a1.5,1.5,0,0,0,3,0V25.215a4.278,4.278,0,0,0,0-8.03Z" fill="#928d8d"/>
      <path id="Контур_57" data-name="Контур 57" d="M25.5,23.718V10a1.5,1.5,0,0,0-3,0V23.718a4.279,4.279,0,0,0,0,8.03V38a1.5,1.5,0,0,0,3,0V31.748a4.279,4.279,0,0,0,0-8.03Z" fill="#928d8d"/>
      <path id="Контур_58" data-name="Контур 58" d="M36.7,17.185V10a1.5,1.5,0,0,0-3,0v7.185a4.278,4.278,0,0,0,0,8.03V38a1.5,1.5,0,0,0,3,0V25.215a4.279,4.279,0,0,0,0-8.03Z" fill="#928d8d"/>
    </g>
  </g>
</svg>
