<svg xmlns="http://www.w3.org/2000/svg" width="12.333" height="11.212" viewBox="0 0 12.333 11.212">
  <g id="card-like" transform="translate(-1 -25.5)">
    <g id="thumb-up" transform="translate(1 25.5)">
      <path id="Контур_51" data-name="Контур 51" d="M0,36.712H2.242V29.985H0Zm12.333-6.167a1.125,1.125,0,0,0-1.121-1.121H7.68l.561-2.579v-.168a1.176,1.176,0,0,0-.224-.617L7.4,25.5,3.7,29.2a.941.941,0,0,0-.336.785v5.606a1.124,1.124,0,0,0,1.121,1.121H9.53a1.107,1.107,0,0,0,1.009-.673l1.682-3.98a.954.954,0,0,0,.056-.392V30.545h.056Z" transform="translate(0 -25.5)" fill="#747474"/>
    </g>
  </g>
</svg>
