<svg xmlns="http://www.w3.org/2000/svg" width="13.667" height="13.667" viewBox="0 0 13.667 13.667">
  <g id="clock" transform="translate(-2.5 -2.5)">
    <path id="Контур_52" data-name="Контур 52" d="M9.333,2.5a6.833,6.833,0,1,0,6.833,6.833A6.839,6.839,0,0,0,9.333,2.5Zm0,12.713a5.88,5.88,0,1,1,5.88-5.88A5.887,5.887,0,0,1,9.333,15.213Z" fill="#747474"/>
    <path id="Контур_53" data-name="Контур 53" d="M19.568,9.5a.476.476,0,0,0-.477.477v3.96L17.614,15.71a.477.477,0,0,0,.366.782.467.467,0,0,0,.366-.172l1.589-1.907a.486.486,0,0,0,.111-.305V9.977A.476.476,0,0,0,19.568,9.5Z" transform="translate(-10.235 -4.775)" fill="#747474"/>
  </g>
</svg>
