<svg xmlns="http://www.w3.org/2000/svg" width="17.033" height="16.837" viewBox="0 0 17.033 16.837">
  <g id="close" transform="translate(-6.759 -6.81)">
    <path id="Контур_62" data-name="Контур 62" d="M8.374,23.625a1.613,1.613,0,0,1-1.145-.387,1.613,1.613,0,0,1,0-2.275l13.7-13.7A1.613,1.613,0,0,1,23.281,9.46L9.5,23.238a1.613,1.613,0,0,1-1.129.387Z" transform="translate(0 0.013)" fill="#fff"/>
    <path id="Контур_63" data-name="Контур 63" d="M22.024,23.638a1.613,1.613,0,0,1-1.129-.468L7.2,9.472A1.613,1.613,0,0,1,9.472,7.2l13.778,13.7a1.575,1.575,0,0,1-1.226,2.743Z" transform="translate(0.031)" fill="#fff"/>
  </g>
</svg>
