<svg xmlns="http://www.w3.org/2000/svg" width="18" height="16.364" viewBox="0 0 18 16.364">
  <g id="dislike" transform="translate(18 41.864) rotate(180)">
    <g id="thumb-up" transform="translate(0 25.5)">
      <path id="Контур_60" data-name="Контур 60" d="M0,41.864H3.273V32.045H0Zm18-9a1.641,1.641,0,0,0-1.636-1.636H11.209l.818-3.764v-.245a1.716,1.716,0,0,0-.327-.9l-.9-.818L5.4,30.9a1.373,1.373,0,0,0-.491,1.145v8.182a1.641,1.641,0,0,0,1.636,1.636h7.364a1.616,1.616,0,0,0,1.473-.982l2.455-5.809a1.392,1.392,0,0,0,.082-.573V32.864H18Z" transform="translate(0 -25.5)" fill="#db4646"/>
    </g>
  </g>
</svg>
