<svg xmlns="http://www.w3.org/2000/svg" width="14.667" height="10" viewBox="0 0 14.667 10">
  <g id="eye" transform="translate(0 -74.667)">
    <g id="Сгруппировать_3" data-name="Сгруппировать 3" transform="translate(0 74.667)">
      <g id="Сгруппировать_2" data-name="Сгруппировать 2" transform="translate(0 0)">
        <path id="Контур_54" data-name="Контур 54" d="M172.667,170.667a2,2,0,1,0,2,2A2,2,0,0,0,172.667,170.667Z" transform="translate(-165.334 -167.667)" fill="#747474"/>
        <path id="Контур_55" data-name="Контур 55" d="M7.333,74.667a7.885,7.885,0,0,0-7.333,5,7.878,7.878,0,0,0,14.667,0A7.881,7.881,0,0,0,7.333,74.667Zm0,8.333a3.333,3.333,0,1,1,3.333-3.333A3.335,3.335,0,0,1,7.333,83Z" transform="translate(0 -74.667)" fill="#747474"/>
      </g>
    </g>
  </g>
</svg>
