<svg xmlns="http://www.w3.org/2000/svg" width="31" height="20" viewBox="0 0 31 20">
  <g id="united-states_1_" data-name="united-states (1)" transform="translate(0 -90.839)">
    <path id="Контур_1" data-name="Контур 1" d="M38.472,90.839H24.464L9,101.543v8.9H38.472l1-.587v-1.858l-.651-.619v-1.757l.651-.483v-2.859l-.586-.561v-1.8l.586-.5V96.557l-.586-.518V94.464l.586-.766V91.84A1,1,0,0,0,38.472,90.839Z" transform="translate(-8.473 0)" fill="#e5646e"/>
    <path id="Контур_2" data-name="Контур 2" d="M256.333,138.028h14.98v2.765h-14.98Z" transform="translate(-240.313 -44.424)" fill="#f2f2f6"/>
    <path id="Контур_3" data-name="Контур 3" d="M256,232.4l.484,2.765H271V232.4Z" transform="translate(-240 -132.949)" fill="#f2f2f6"/>
    <path id="Контур_4" data-name="Контур 4" d="M1,275.928V271l-1,.5v2.765l.424.35v1.816l-.424.6v1.8a.984.984,0,0,0,1,.968H30a.984.984,0,0,0,1-.968H4a2.953,2.953,0,0,1-3-2.9Z" transform="translate(0 -168.96)" fill="#db4655"/>
    <path id="Контур_5" data-name="Контур 5" d="M21.132,90.839H6.616L6,91.807,6.616,101.9H21.132Z" transform="translate(-5.648 0)" fill="#5055a0"/>
    <path id="Контур_6" data-name="Контур 6" d="M.968,90.839A.968.968,0,0,0,0,91.807V101.9H.968Z" transform="translate(0 0)" fill="#3f3f8f"/>
    <path id="Контур_7" data-name="Контур 7" d="M25.3,112.109a.484.484,0,0,1,0-.968h0a.484.484,0,1,1,0,.968Z" transform="translate(-23.361 -19.112)" fill="#fff"/>
    <path id="Контур_8" data-name="Контур 8" d="M25.3,178.174a.484.484,0,0,1,0-.968h0a.484.484,0,1,1,0,.968Z" transform="translate(-23.361 -81.129)" fill="#fff"/>
    <path id="Контур_9" data-name="Контур 9" d="M25.3,244.238a.484.484,0,0,1,0-.968h0a.484.484,0,1,1,0,.968Z" transform="translate(-23.361 -143.186)" fill="#fff"/>
    <path id="Контур_10" data-name="Контур 10" d="M25.3,145.142a.484.484,0,0,1,0-.968h0a.484.484,0,1,1,0,.968Z" transform="translate(-23.361 -50.1)" fill="#f2f2f6"/>
    <path id="Контур_11" data-name="Контур 11" d="M25.3,211.206a.484.484,0,0,1,0-.968h0a.484.484,0,1,1,0,.968Z" transform="translate(-23.361 -112.157)" fill="#f2f2f6"/>
    <path id="Контур_12" data-name="Контур 12" d="M223.494,112.109a.484.484,0,0,1,0-.968h0a.484.484,0,1,1,0,.968Z" transform="translate(-209.491 -19.112)" fill="#fff"/>
    <path id="Контур_13" data-name="Контур 13" d="M223.494,178.174a.484.484,0,0,1,0-.968h0a.484.484,0,1,1,0,.968Z" transform="translate(-209.491 -81.129)" fill="#fff"/>
    <path id="Контур_14" data-name="Контур 14" d="M223.494,244.238a.484.484,0,0,1,0-.968h0a.484.484,0,1,1,0,.968Z" transform="translate(-209.491 -143.186)" fill="#fff"/>
    <g id="Сгруппировать_1" data-name="Сгруппировать 1" transform="translate(4.357 92.029)">
      <path id="Контур_15" data-name="Контур 15" d="M223.494,145.142a.484.484,0,0,1,0-.968h0a.484.484,0,1,1,0,.968Z" transform="translate(-214.298 -142.238)" fill="#f2f2f6"/>
      <path id="Контур_16" data-name="Контур 16" d="M223.494,211.206a.484.484,0,0,1,0-.968h0a.484.484,0,1,1,0,.968Z" transform="translate(-214.298 -204.432)" fill="#f2f2f6"/>
      <path id="Контур_17" data-name="Контур 17" d="M74.849,112.109a.484.484,0,0,1,0-.968h0a.484.484,0,1,1,0,.968Z" transform="translate(-74.363 -111.141)" fill="#f2f2f6"/>
      <path id="Контур_18" data-name="Контур 18" d="M74.849,178.174a.484.484,0,0,1,0-.968h0a.484.484,0,1,1,0,.968Z" transform="translate(-74.363 -173.335)" fill="#f2f2f6"/>
      <path id="Контур_19" data-name="Контур 19" d="M74.849,244.238a.484.484,0,0,1,0-.968h0a.484.484,0,1,1,0,.968Z" transform="translate(-74.363 -235.528)" fill="#f2f2f6"/>
    </g>
    <path id="Контур_20" data-name="Контур 20" d="M74.849,145.142a.484.484,0,0,1,0-.968h0a.484.484,0,1,1,0,.968Z" transform="translate(-70.006 -50.1)" fill="#fff"/>
    <path id="Контур_21" data-name="Контур 21" d="M74.849,211.206a.484.484,0,0,1,0-.968h0a.484.484,0,1,1,0,.968Z" transform="translate(-70.006 -112.157)" fill="#fff"/>
    <path id="Контур_22" data-name="Контур 22" d="M50.075,128.625a.484.484,0,0,1,0-.968h0a.484.484,0,1,1,0,.968Z" transform="translate(-46.683 -34.661)" fill="#fff"/>
    <path id="Контур_23" data-name="Контур 23" d="M50.075,194.69a.484.484,0,0,1,0-.968h0a.484.484,0,1,1,0,.968Z" transform="translate(-46.683 -96.643)" fill="#fff"/>
    <path id="Контур_24" data-name="Контур 24" d="M50.075,161.658a.484.484,0,0,1,0-.968h0a.484.484,0,1,1,0,.968Z" transform="translate(-46.683 -65.615)" fill="#f2f2f6"/>
    <path id="Контур_25" data-name="Контур 25" d="M50.075,227.722a.484.484,0,0,1,0-.968h0a.484.484,0,1,1,0,.968Z" transform="translate(-46.683 -127.672)" fill="#f2f2f6"/>
    <path id="Контур_26" data-name="Контур 26" d="M124.4,112.109a.484.484,0,0,1,0-.968h0a.484.484,0,1,1,0,.968Z" transform="translate(-116.401 -19.112)" fill="#fff"/>
    <path id="Контур_27" data-name="Контур 27" d="M124.4,178.174a.484.484,0,0,1,0-.968h0a.484.484,0,1,1,0,.968Z" transform="translate(-116.401 -81.129)" fill="#fff"/>
    <path id="Контур_28" data-name="Контур 28" d="M124.4,244.238a.484.484,0,0,1,0-.968h0a.484.484,0,1,1,0,.968Z" transform="translate(-116.401 -143.186)" fill="#fff"/>
    <path id="Контур_29" data-name="Контур 29" d="M124.4,145.142a.484.484,0,0,1,0-.968h0a.484.484,0,1,1,0,.968Z" transform="translate(-116.401 -50.1)" fill="#f2f2f6"/>
    <path id="Контур_30" data-name="Контур 30" d="M124.4,211.206a.484.484,0,0,1,0-.968h0a.484.484,0,1,1,0,.968Z" transform="translate(-116.401 -112.157)" fill="#f2f2f6"/>
    <path id="Контур_31" data-name="Контур 31" d="M99.623,128.625a.484.484,0,0,1,0-.968h0a.484.484,0,1,1,0,.968Z" transform="translate(-93.128 -34.661)" fill="#f2f2f6"/>
    <path id="Контур_32" data-name="Контур 32" d="M99.623,194.69a.484.484,0,0,1,0-.968h0a.484.484,0,1,1,0,.968Z" transform="translate(-93.128 -96.643)" fill="#f2f2f6"/>
    <path id="Контур_33" data-name="Контур 33" d="M99.623,161.658a.484.484,0,0,1,0-.968h0a.484.484,0,1,1,0,.968Z" transform="translate(-93.128 -65.615)" fill="#fff"/>
    <path id="Контур_34" data-name="Контур 34" d="M99.623,227.722a.484.484,0,0,1,0-.968h0a.484.484,0,1,1,0,.968Z" transform="translate(-93.128 -127.672)" fill="#fff"/>
    <path id="Контур_35" data-name="Контур 35" d="M173.865,112.109a.484.484,0,1,1,0-.968h0a.484.484,0,1,1,0,.968Z" transform="translate(-162.87 -19.112)" fill="#f2f2f6"/>
    <path id="Контур_36" data-name="Контур 36" d="M173.865,178.174a.484.484,0,1,1,0-.968h0a.484.484,0,1,1,0,.968Z" transform="translate(-162.87 -81.129)" fill="#f2f2f6"/>
    <path id="Контур_37" data-name="Контур 37" d="M173.865,244.238a.484.484,0,1,1,0-.968h0a.484.484,0,1,1,0,.968Z" transform="translate(-162.87 -143.186)" fill="#f2f2f6"/>
    <path id="Контур_38" data-name="Контур 38" d="M173.865,145.142a.484.484,0,1,1,0-.968h0a.484.484,0,1,1,0,.968Z" transform="translate(-162.87 -50.1)" fill="#fff"/>
    <path id="Контур_39" data-name="Контур 39" d="M173.865,211.206a.484.484,0,1,1,0-.968h0a.484.484,0,1,1,0,.968Z" transform="translate(-162.87 -112.157)" fill="#fff"/>
    <path id="Контур_40" data-name="Контур 40" d="M149.091,128.625a.484.484,0,0,1,0-.968h0a.484.484,0,1,1,0,.968Z" transform="translate(-139.598 -34.661)" fill="#fff"/>
    <path id="Контур_41" data-name="Контур 41" d="M149.091,194.69a.484.484,0,1,1,0-.968h0a.484.484,0,1,1,0,.968Z" transform="translate(-139.598 -96.643)" fill="#fff"/>
    <path id="Контур_42" data-name="Контур 42" d="M149.091,161.658a.484.484,0,1,1,0-.968h0a.484.484,0,1,1,0,.968Z" transform="translate(-139.598 -65.615)" fill="#f2f2f6"/>
    <path id="Контур_43" data-name="Контур 43" d="M149.091,227.722a.484.484,0,0,1,0-.968h0a.484.484,0,1,1,0,.968Z" transform="translate(-139.598 -127.672)" fill="#f2f2f6"/>
    <path id="Контур_44" data-name="Контур 44" d="M198.72,128.625a.484.484,0,0,1,0-.968h0a.484.484,0,1,1,0,.968Z" transform="translate(-186.219 -34.661)" fill="#f2f2f6"/>
    <path id="Контур_45" data-name="Контур 45" d="M198.72,194.69a.484.484,0,0,1,0-.968h0a.484.484,0,1,1,0,.968Z" transform="translate(-186.219 -96.643)" fill="#f2f2f6"/>
    <path id="Контур_46" data-name="Контур 46" d="M198.72,161.658a.484.484,0,0,1,0-.968h0a.484.484,0,1,1,0,.968Z" transform="translate(-186.219 -65.615)" fill="#fff"/>
    <path id="Контур_47" data-name="Контур 47" d="M198.72,227.722a.484.484,0,0,1,0-.968h0a.484.484,0,1,1,0,.968Z" transform="translate(-186.219 -127.672)" fill="#fff"/>
    <path id="Контур_48" data-name="Контур 48" d="M3,328.749l1.045.8H33.824v-2.765H3.819Z" transform="translate(-2.824 -221.474)" fill="#f2f2f6"/>
    <path id="Контур_49" data-name="Контур 49" d="M0,326.782v2.765H1.187a2.893,2.893,0,0,1-.219-1.106v-1.659H0Z" transform="translate(0 -221.473)" fill="#e1e1e6"/>
  </g>
</svg>
